<?xml version="1.0" encoding="UTF-8" standalone="no"?>
<svg
   xmlns:dc="http://purl.org/dc/elements/1.1/"
   xmlns:cc="http://creativecommons.org/ns#"
   xmlns:rdf="http://www.w3.org/1999/02/22-rdf-syntax-ns#"
   xmlns:svg="http://www.w3.org/2000/svg"
   xmlns="http://www.w3.org/2000/svg"
   xmlns:sodipodi="http://sodipodi.sourceforge.net/DTD/sodipodi-0.dtd"
   xmlns:inkscape="http://www.inkscape.org/namespaces/inkscape"
   width="300"
   height="60"
   viewBox="0 0 231.3075 77.1024"
   version="1.1"
   id="svg1021"
   sodipodi:docname="paul-mitchell.svg"
   inkscape:version="1.0.2-2 (e86c870879, 2021-01-15)">
  <metadata
     id="metadata1027">
    <rdf:RDF>
      <cc:Work
         rdf:about="">
        <dc:format>image/svg+xml</dc:format>
        <dc:type
           rdf:resource="http://purl.org/dc/dcmitype/StillImage" />
        <dc:title></dc:title>
      </cc:Work>
    </rdf:RDF>
  </metadata>
  <defs
     id="defs1025" />
  <sodipodi:namedview
     pagecolor="#ffffff"
     bordercolor="#666666"
     borderopacity="1"
     objecttolerance="10"
     gridtolerance="10"
     guidetolerance="10"
     inkscape:pageopacity="0"
     inkscape:pageshadow="2"
     inkscape:window-width="1497"
     inkscape:window-height="747"
     id="namedview1023"
     showgrid="false"
     inkscape:zoom="4.0389939"
     inkscape:cx="109.00819"
     inkscape:cy="46.807425"
     inkscape:window-x="0"
     inkscape:window-y="0"
     inkscape:window-maximized="0"
     inkscape:current-layer="svg1021" />
  <g
     id="g1073"
     transform="matrix(1.8417451,0,0,1.8417451,-69.47238,-141.07256)">
    <path
       d="m 3.755,81.546 h 179.846 c 0.316,0 0.633,0 0.633,0.632 0,0.633 -0.316,0.633 -0.633,0.633 H 3.755 c -0.316,0 -0.632,0 -0.632,-0.633 0,-0.632 0.316,-0.632 0.632,-0.632 z m 0,20.599 h 179.846 c 0.316,0 0.633,0 0.633,0.632 0,0.633 -0.316,0.633 -0.633,0.633 H 3.755 c -0.316,0 -0.632,0 -0.632,-0.633 0,-0.632 0.316,-0.632 0.632,-0.632 z"
       id="path933" />
    <path
       d="m 5.391,85.862 c 0,-0.197 0.159,-0.356 0.356,-0.356 L 5.82,85.492 h 8.396 c 3.824,0 4.175,1.829 4.175,4.236 l 0.002,-0.045 0.012,-0.078 c 0,2.407 -0.351,4.235 -4.175,4.235 L 14.11,93.836 H 8.812 L 8.696,93.839 A 0.356,0.356 0 0 1 8.34,93.483 v -0.678 c 0,-0.197 0.16,-0.357 0.356,-0.357 l 0.127,-0.011 h 3.414 l 1.018,0.004 c 2.674,0 3.405,-0.331 3.453,-2.772 l -0.011,0.063 -0.002,-0.067 C 16.648,87.223 15.916,86.893 13.242,86.893 H 7.517 l -0.08,0.003 A 0.357,0.357 0 0 0 7.08,87.253 V 99.335 A 0.356,0.356 0 0 1 6.724,99.691 H 5.738 A 0.357,0.357 0 0 1 5.381,99.335 Z"
       fill-rule="evenodd"
       clip-rule="evenodd"
       id="path935" />
    <path
       d="m 5.068,85.862 a 0.68,0.68 0 0 1 0.655,-0.679 l 0.042,-0.008 0.057,-0.006 h 8.396 c 2.03,0 3.154,0.506 3.78,1.345 0.601,0.805 0.71,1.876 0.717,3.089 l 0.014,0.001 c 0,1.263 -0.097,2.38 -0.718,3.213 -0.626,0.839 -1.75,1.345 -3.78,1.345 H 14.22 L 14.101,94.159 H 8.819 L 8.703,94.162 H 8.696 a 0.68,0.68 0 0 1 -0.679,-0.68 v -0.678 a 0.676,0.676 0 0 1 0.678,-0.679 l 0.099,-0.009 0.029,-0.002 h 3.414 l 1.018,0.003 c 1.269,0 2.068,-0.071 2.52,-0.406 0.418,-0.31 0.581,-0.907 0.609,-1.969 h -0.01 l -0.002,-0.067 v -0.006 c -0.021,-1.112 -0.182,-1.73 -0.61,-2.048 -0.451,-0.335 -1.25,-0.406 -2.52,-0.406 H 7.529 l -0.08,0.003 H 7.437 c -0.01,0 -0.02,0.004 -0.025,0.01 h 0.001 a 0.035,0.035 0 0 0 -0.01,0.024 v 12.082 a 0.678,0.678 0 0 1 -0.199,0.479 l -10e-4,0.002 a 0.678,0.678 0 0 1 -0.479,0.198 H 5.738 a 0.674,0.674 0 0 1 -0.48,-0.2 v 10e-4 A 0.675,0.675 0 0 1 5.059,99.335 Z m 0.646,0 -0.01,13.472 a 0.03,0.03 0 0 0 0.01,0.023 v 0.001 c 0.005,0.006 0.014,0.009 0.024,0.009 h 0.985 c 0.01,0 0.019,-0.004 0.024,-0.01 0.005,-0.006 0.009,-0.014 0.009,-0.023 V 87.252 c 0,-0.188 0.076,-0.357 0.199,-0.48 H 6.956 A 0.675,0.675 0 0 1 7.435,86.573 H 7.423 L 7.504,86.57 h 5.737 c 1.404,0 2.309,0.094 2.903,0.534 0.618,0.458 0.847,1.226 0.873,2.556 v -0.006 l 0.001,0.019 0.013,0.001 c -0.025,1.33 -0.255,2.097 -0.873,2.555 -0.594,0.44 -1.499,0.535 -2.903,0.535 L 12.237,92.76 H 8.823 l -0.098,0.009 -0.029,0.002 a 0.035,0.035 0 0 0 -0.024,0.01 0.033,0.033 0 0 0 -0.01,0.024 v 0.678 c 0,0.018 0.014,0.032 0.03,0.034 l 0.112,-0.003 h 5.317 l 0.118,0.003 c 1.789,-10e-4 2.75,-0.409 3.254,-1.085 0.491,-0.658 0.583,-1.611 0.589,-2.703 h -0.014 v -0.014 c 0,-1.138 -0.082,-2.133 -0.589,-2.814 -0.505,-0.677 -1.469,-1.085 -3.263,-1.085 H 5.842 l -0.038,0.007 -0.057,0.006 a 0.033,0.033 0 0 0 -0.033,0.033 z"
       id="path937" />
    <path
       d="m 123.449,94.974 c 0,-0.197 0.16,-0.356 0.357,-0.356 h 0.986 c 0.197,0 0.355,0.159 0.355,0.356 v 0.939 c 0,3.208 -2.355,3.564 -6.312,3.564 h -3.164 c -3.615,0 -5.205,-1.605 -5.205,-4.404 v -5.411 c 0,-3.956 2.91,-4.404 7.709,-4.404 h 1.848 c 4.141,0 4.861,1.269 4.861,4.031 l -0.008,0.093 c 0,0.197 -0.16,0.356 -0.357,0.356 h -0.984 a 0.357,0.357 0 0 1 -0.357,-0.356 l 0.01,-0.038 c 0,-1.959 -0.58,-2.687 -3.48,-2.687 h -1.268 c -4.641,0 -6.277,0.392 -6.277,2.948 v 3.844 c 0,3.19 0.186,4.627 3.932,4.627 h 2.662 c 3.588,0 4.695,-0.354 4.695,-2.351 V 95.07 Z"
       fill-rule="evenodd"
       clip-rule="evenodd"
       id="path939" />
    <path
       d="m 123.127,94.978 v -0.004 a 0.68,0.68 0 0 1 0.68,-0.68 h 0.986 a 0.676,0.676 0 0 1 0.679,0.679 v 0.004 l -0.002,0.093 v 0.842 c 0,1.753 -0.656,2.734 -1.863,3.279 -1.137,0.515 -2.754,0.607 -4.771,0.607 h -3.164 c -1.848,0 -3.199,-0.41 -4.109,-1.18 -0.967,-0.818 -1.418,-2.02 -1.418,-3.547 V 89.66 c 0,-2.126 0.793,-3.315 2.244,-3.978 1.383,-0.632 3.348,-0.748 5.787,-0.748 h 1.848 c 2.16,0 3.443,0.346 4.205,1.069 0.777,0.739 0.979,1.818 0.979,3.284 v 0.024 L 125.2,89.404 V 89.38 a 0.679,0.679 0 0 1 -0.68,0.679 h -0.984 a 0.68,0.68 0 0 1 -0.68,-0.679 l 0.01,-0.072 c -0.004,-0.864 -0.125,-1.449 -0.539,-1.796 -0.443,-0.374 -1.25,-0.533 -2.619,-0.533 h -1.268 c -2.281,0 -3.816,0.093 -4.754,0.489 -0.85,0.358 -1.199,1.005 -1.199,2.136 v 3.844 c 0,1.536 0.041,2.646 0.504,3.328 0.449,0.662 1.354,0.977 3.104,0.977 h 2.662 c 1.748,0 2.883,-0.082 3.557,-0.396 0.592,-0.275 0.816,-0.774 0.816,-1.632 V 95.07 Z"
       id="path941" />
    <path
       d="m 36.511,85.704 c 0,-0.197 0.159,-0.356 0.356,-0.356 h 0.976 c 0.197,0 0.356,0.16 0.356,0.356 l -0.005,0.111 v 9.63 c 0,2.276 0.765,2.63 5.592,2.63 3.982,0 5.897,-0.019 5.897,-2.63 V 86.97 l 0.006,-1.165 c 0,-0.196 0.16,-0.356 0.356,-0.356 h 0.976 c 0.197,0 0.356,0.16 0.356,0.356 l 10e-4,1.114 v 8.526 c 0,3.75 -2.925,4.031 -7.593,4.031 -4.326,0 -7.288,-0.075 -7.288,-4.031 v -9.63 z"
       fill-rule="evenodd"
       clip-rule="evenodd"
       id="path943" />
    <path
       d="m 36.188,85.69 a 0.677,0.677 0 0 1 0.679,-0.665 h 0.976 a 0.68,0.68 0 0 1 0.68,0.679 v 0.014 l -0.005,0.111 v 9.617 c 0,1.002 0.155,1.576 0.799,1.877 0.74,0.349 2.103,0.431 4.47,0.431 1.961,0 3.414,-0.004 4.339,-0.318 0.829,-0.281 1.236,-0.852 1.236,-1.99 v -8.477 l 0.005,-1.164 v -0.001 0.001 -0.001 c 0,-0.187 0.077,-0.356 0.2,-0.479 v 10e-4 a 0.674,0.674 0 0 1 0.48,-0.2 h 0.976 c 0.187,0 0.357,0.077 0.48,0.2 v -10e-4 a 0.676,0.676 0 0 1 0.199,0.48 l 0.001,1.114 v 8.526 c 0,2.032 -0.803,3.127 -2.247,3.719 -1.369,0.561 -3.301,0.634 -5.669,0.634 -2.195,0 -4.047,-0.02 -5.386,-0.556 -1.41,-0.564 -2.225,-1.659 -2.225,-3.797 v -9.63 l 0.002,-0.035 z m 0.646,0.014 -0.002,0.036 -0.01,0.087 v 9.619 c 0,1.818 0.666,2.738 1.818,3.2 1.224,0.49 3.017,0.508 5.146,0.508 2.299,0 4.165,-0.067 5.425,-0.583 1.186,-0.486 1.846,-1.406 1.846,-3.125 V 86.92 l -0.001,-1.114 a 0.03,0.03 0 0 0 -0.01,-0.023 v -0.001 a 0.035,0.035 0 0 0 -0.024,-0.009 h -0.976 c -0.01,0 -0.019,0.003 -0.024,0.009 v 0.001 a 0.033,0.033 0 0 0 -0.01,0.023 v 0.001 l -0.006,1.165 v 8.474 c 0,1.473 -0.551,2.219 -1.675,2.6 -1.028,0.349 -2.525,0.354 -4.545,0.354 -2.459,0 -3.894,-0.095 -4.742,-0.493 -0.945,-0.443 -1.172,-1.187 -1.172,-2.46 V 85.802 L 37.877,85.7 C 37.875,85.684 37.86,85.672 37.843,85.672 h -0.976 a 0.034,0.034 0 0 0 -0.024,0.009 c -0.006,0.005 -0.009,0.014 -0.009,0.023 z"
       id="path945" />
    <path
       d="m 105.328,86.833 a 0.357,0.357 0 0 1 -0.357,-0.357 V 85.81 c 0,-0.197 0.16,-0.357 0.357,-0.357 l 0.102,-0.015 h 3.941 l 0.133,10e-4 c 0.197,0 0.357,0.16 0.357,0.357 v 0.686 c 0,0.196 -0.16,0.356 -0.357,0.356 h -4.078 z"
       fill-rule="evenodd"
       clip-rule="evenodd"
       id="path947" />
    <path
       d="m 105.312,87.156 a 0.678,0.678 0 0 1 -0.664,-0.679 v -0.666 a 0.68,0.68 0 0 1 0.654,-0.679 l 0.08,-0.012 0.047,-0.004 h 3.943 l 0.131,0.001 h 0.002 -0.002 0.002 a 0.683,0.683 0 0 1 0.678,0.679 v 0.686 a 0.677,0.677 0 0 1 -0.679,0.679 h -4.094 z m 0.016,-0.646 h 0.016 l 0.1,0.005 h 4.063 a 0.03,0.03 0 0 0 0.023,-0.01 h -0.002 a 0.03,0.03 0 0 0 0.012,-0.023 v -0.686 a 0.029,0.029 0 0 0 -0.012,-0.024 0.033,0.033 0 0 0 -0.023,-0.01 h -0.002 l -0.131,-0.001 h -3.92 l -0.076,0.011 -0.047,0.004 c -0.02,0 -0.033,0.016 -0.033,0.034 v 0.666 c 0,0.01 0.004,0.018 0.01,0.024 0.005,0.006 0.012,0.01 0.022,0.01 z"
       id="path949" />
    <path
       d="m 100.324,86.838 h -5.146 a 0.356,0.356 0 0 1 -0.356,-0.356 v -0.686 c 0,-0.197 0.16,-0.356 0.356,-0.356 l 0.209,-0.001 h 7.568 l 0.117,0.001 c 0.197,0 0.357,0.16 0.357,0.357 l 0.01,0.126 -0.004,0.915 v 12.111 l 0.002,0.116 a 0.355,0.355 0 0 1 -0.355,0.356 h -0.986 a 0.357,0.357 0 0 1 -0.355,-0.356 l -0.01,-0.116 V 87.196 h -0.004 a 0.355,0.355 0 0 0 -0.355,-0.356 z"
       fill-rule="evenodd"
       clip-rule="evenodd"
       id="path951" />
    <path
       d="m 100.324,87.161 h -5.146 a 0.676,0.676 0 0 1 -0.679,-0.679 v -0.686 c 0,-0.188 0.076,-0.357 0.199,-0.48 v 10e-4 a 0.676,0.676 0 0 1 0.48,-0.2 l 0.209,-0.001 h 7.572 l 0.113,0.001 h 0.004 -0.004 0.004 a 0.679,0.679 0 0 1 0.676,0.679 V 85.77 l 0.01,0.126 v 0.027 l -0.004,0.914 v 12.104 l 0.004,0.116 v 0.008 a 0.677,0.677 0 0 1 -0.679,0.678 h -0.986 a 0.676,0.676 0 0 1 -0.677,-0.671 v 0.019 l -0.012,-0.116 V 87.508 h -0.002 v -0.312 c 0,-0.009 -0.004,-0.018 -0.01,-0.024 -0.006,-0.006 -0.016,-0.01 -0.023,-0.01 z m 0,-0.646 1.047,0.001 a 0.676,0.676 0 0 1 0.601,0.365 l 0.08,0.002 v 12.065 -0.027 l 0.01,0.116 v 0.027 a 0.03,0.03 0 0 0 0.01,0.023 c 0.006,0.007 0.016,0.01 0.023,0.01 h 0.986 c 0.01,0 0.018,-0.003 0.023,-0.01 a 0.032,0.032 0 0 0 0.01,-0.022 l -0.002,-0.11 V 86.837 l 0.004,-0.889 -0.012,-0.125 v -0.026 a 0.033,0.033 0 0 0 -0.01,-0.024 0.033,0.033 0 0 0 -0.023,-0.01 h -0.004 l -0.117,-0.001 h -7.773 c -0.01,0 -0.019,0.003 -0.024,0.009 v 0.001 a 0.035,0.035 0 0 0 -0.01,0.024 v 0.686 c 0,0.009 0.004,0.018 0.01,0.024 0.006,0.006 0.015,0.01 0.024,0.01 h 5.147 z"
       id="path953" />
    <path
       d="m 20.046,99.121 c 0,0.196 0.16,0.356 0.356,0.356 h 0.966 c 0.197,0 0.357,-0.16 0.357,-0.356 l -0.003,-0.152 v -5.193 l 0.019,-0.182 -0.01,-0.01 c 0,-0.197 0.16,-0.356 0.356,-0.356 l 0.144,-0.012 8.583,-0.007 0.068,0.006 0.01,-0.016 c 0.197,0 0.356,-0.16 0.354,-0.354 V 92.199 A 0.353,0.353 0 0 0 30.89,91.842 l -0.081,0.005 -8.402,-10e-4 -0.302,0.002 -0.01,0.009 a 0.356,0.356 0 0 1 -0.356,-0.356 l -0.017,-0.208 v -1.895 c 0,-2.276 0.765,-2.631 5.592,-2.631 3.982,0 5.643,0.019 5.643,2.631 v 9.572 l 0.017,0.22 c 0,0.197 0.16,0.356 0.357,0.356 h 0.966 a 0.356,0.356 0 0 0 0.356,-0.356 v -9.792 c 0,-3.75 -2.67,-4.03 -7.338,-4.03 -4.326,0 -7.288,0.075 -7.288,4.03 v 9.572 z"
       fill-rule="evenodd"
       clip-rule="evenodd"
       id="path955" />
    <path
       d="m 21.403,99.123 c 0,-0.001 0,-0.001 0,0 z m -1.679,0.01 -0.016,-0.123 -0.004,-0.041 v -9.572 c 0,-2.138 0.815,-3.233 2.225,-3.797 1.339,-0.536 3.19,-0.556 5.386,-0.556 2.373,0 4.242,0.073 5.547,0.635 1.378,0.593 2.114,1.689 2.114,3.718 v 9.792 a 0.676,0.676 0 0 1 -0.679,0.679 h -0.966 a 0.676,0.676 0 0 1 -0.48,-0.199 h 10e-4 a 0.676,0.676 0 0 1 -0.2,-0.48 v 0.024 l -0.017,-0.22 v -9.596 c 0,-1.144 -0.349,-1.714 -1.115,-1.993 -0.857,-0.311 -2.246,-0.315 -4.205,-0.315 -2.367,0 -3.73,0.083 -4.47,0.43 -0.644,0.302 -0.799,0.875 -0.799,1.878 v 1.87 l 0.017,0.208 V 91.5 a 0.03,0.03 0 0 0 0.01,0.023 0.029,0.029 0 0 0 0.014,0.008 l 0.019,-0.007 0.303,-0.002 h 0.001 l 8.383,10e-4 0.08,-0.005 h 0.019 c 0.188,0 0.359,0.076 0.483,0.199 h -0.001 c 0.124,0.123 0.2,0.292 0.198,0.48 v 0.003 -0.003 0.646 -0.004 0.004 a 0.667,0.667 0 0 1 -0.475,0.646 l -0.037,0.063 -0.203,-0.02 -0.041,-0.003 -8.582,0.007 h 0.027 l -0.144,0.012 H 22.09 a 0.037,0.037 0 0 0 -0.02,0.007 l -0.007,0.067 -0.016,0.157 v 5.182 l 0.003,0.152 v 0.005 a 0.678,0.678 0 0 1 -0.2,0.479 v 0.002 a 0.676,0.676 0 0 1 -0.48,0.198 h -0.966 a 0.676,0.676 0 0 1 -0.48,-0.198 V 99.6 a 0.672,0.672 0 0 1 -0.2,-0.467 z"
       id="path957" />
    <path
       d="M 72.398,98.964 V 86.687 h 0.05 l 6.955,12.495 0.064,0.097 a 0.358,0.358 0 0 0 0.326,0.211 l 0.848,-0.005 a 0.36,0.36 0 0 0 0.329,-0.218 l 0.041,-0.063 6.944,-12.517 h 0.05 V 99.022 L 88,99.133 c 0,0.197 0.16,0.356 0.356,0.356 h 0.898 a 0.356,0.356 0 0 0 0.356,-0.356 l 0.007,-0.111 V 86.005 L 89.613,85.857 A 0.357,0.357 0 0 0 89.257,85.5 h -2.198 a 0.357,0.357 0 0 0 -0.301,0.166 l -0.107,0.166 -6.486,11.641 -6.429,-11.585 -0.129,-0.242 a 0.356,0.356 0 0 0 -0.294,-0.154 l -0.009,0.008 -0.16,-0.008 h -1.875 l -0.13,0.008 a 0.356,0.356 0 0 0 -0.356,0.357 l 0.009,0.009 -0.007,0.129 v 12.968 l 0.005,0.169 c 0,0.197 0.159,0.356 0.356,0.356 h 0.889 a 0.356,0.356 0 0 0 0.356,-0.356 z"
       fill-rule="evenodd"
       clip-rule="evenodd"
       id="path959" />
    <path
       d="M 72.075,98.951 V 86.364 h 0.562 l 0.092,0.167 6.949,12.483 0.057,0.086 0.026,0.048 a 0.047,0.047 0 0 0 0.013,0.015 0.033,0.033 0 0 0 0.019,0.005 l 0.847,-0.005 h 0.001 a 0.036,0.036 0 0 0 0.019,-0.005 0.036,0.036 0 0 0 0.013,-0.015 l 0.024,-0.05 0.041,-0.063 -0.009,0.018 6.944,-12.517 0.092,-0.167 h 0.562 v 12.673 l -0.005,0.1 v 0.002 a 0.034,0.034 0 0 0 0.009,0.019 c 0.006,0.006 0.015,0.01 0.024,0.01 h 0.898 a 0.035,0.035 0 0 0 0.024,-0.01 0.037,0.037 0 0 0 0.01,-0.024 v -0.02 l 0.007,-0.111 V 86.014 L 89.29,85.866 v -0.009 c 0,-0.01 -0.004,-0.019 -0.01,-0.024 -0.006,-0.005 -0.015,-0.01 -0.024,-0.01 h -2.198 a 0.038,0.038 0 0 0 -0.016,0.003 c -0.004,0.002 -0.008,0.007 -0.012,0.014 h -0.001 l -0.105,0.162 -6.478,11.626 -0.282,0.506 -0.281,-0.506 -6.429,-11.585 -0.003,-0.005 -0.113,-0.213 -0.05,-0.002 -0.16,-0.007 h -1.841 l -0.129,0.007 h -0.019 a 0.03,0.03 0 0 0 -0.021,0.008 l -0.003,0.052 -0.007,0.129 v 12.944 l 0.004,0.169 v 0.008 c 0,0.01 0.003,0.019 0.009,0.024 0.006,0.005 0.015,0.01 0.024,0.01 h 0.889 c 0.01,0 0.019,-0.004 0.024,-0.009 v -0.001 a 0.037,0.037 0 0 0 0.01,-0.024 V 99.12 Z m 0.646,0.026 -0.007,0.169 a 0.676,0.676 0 0 1 -0.199,0.468 v -0.001 a 0.682,0.682 0 0 1 -0.48,0.2 h -0.889 a 0.675,0.675 0 0 1 -0.479,-0.199 l -0.001,-0.001 a 0.677,0.677 0 0 1 -0.199,-0.479 v 0.008 L 70.463,98.973 V 85.979 l 0.005,-0.104 -0.007,-0.019 c 0,-0.187 0.076,-0.356 0.199,-0.479 l 0.001,-10e-4 A 0.675,0.675 0 0 1 71.14,85.177 H 71.121 L 71.25,85.17 h 1.909 l 0.135,0.006 0.02,-0.008 a 0.68,0.68 0 0 1 0.558,0.294 l 0.019,0.032 0.129,0.242 -0.002,-0.005 6.148,11.08 6.205,-11.135 0.01,-0.018 0.107,-0.166 h -0.001 a 0.664,0.664 0 0 1 0.247,-0.229 0.673,0.673 0 0 1 0.326,-0.084 h 2.198 a 0.676,0.676 0 0 1 0.679,0.671 l 0.004,0.148 v 13.045 l -0.007,0.111 v -0.012 a 0.677,0.677 0 0 1 -0.679,0.671 h -0.898 a 0.675,0.675 0 0 1 -0.479,-0.199 l -0.001,-0.001 a 0.677,0.677 0 0 1 -0.199,-0.479 v -0.015 l 0.005,-0.111 V 87.841 l -6.39,11.518 -0.009,0.018 -0.036,0.058 a 0.678,0.678 0 0 1 -0.605,0.373 h -0.001 0.001 -0.001 l -0.847,0.005 h -0.001 a 0.68,0.68 0 0 1 -0.605,-0.372 l -0.053,-0.08 -0.014,-0.022 -6.401,-11.5 z"
       id="path961" />
    <path
       d="m 93.305,99.099 c 0,0.197 -0.16,0.356 -0.357,0.356 h -0.966 a 0.356,0.356 0 0 1 -0.356,-0.356 l -0.019,-0.123 v -13.02 l 0.002,-0.133 c 0,-0.197 0.16,-0.356 0.356,-0.356 h 0.976 c 0.197,0 0.357,0.16 0.357,0.356 l 0.005,0.15 v 13.002 z"
       fill-rule="evenodd"
       clip-rule="evenodd"
       id="path963" />
    <path
       d="m 93.627,99.096 v 0.003 a 0.676,0.676 0 0 1 -0.679,0.679 H 91.982 A 0.676,0.676 0 0 1 91.304,99.124 L 91.289,99.022 91.285,98.975 V 85.952 l 0.002,-0.129 V 85.82 85.823 85.82 a 0.68,0.68 0 0 1 0.199,-0.477 h 10e-4 a 0.675,0.675 0 0 1 0.479,-0.199 h 0.976 c 0.187,0 0.356,0.076 0.479,0.199 h 10e-4 c 0.121,0.12 0.196,0.287 0.199,0.47 v 0.002 l 0.005,0.148 v 13.009 z"
       id="path965" />
    <path
       d="m 182.291,98.061 h -8.607 l -0.625,-0.011 a 0.357,0.357 0 0 1 -0.357,-0.356 L 172.7,97.206 V 85.911 l -0.002,-0.088 a 0.356,0.356 0 0 0 -0.357,-0.356 h -0.986 A 0.355,0.355 0 0 0 171,85.823 l 0.006,0.088 v 12.667 l 0.002,0.525 c 0,0.197 0.158,0.356 0.355,0.356 h 10.93 l 0.131,0.006 c 0.197,0 0.357,-0.16 0.357,-0.356 v -0.695 a 0.356,0.356 0 0 0 -0.357,-0.356 z"
       fill-rule="evenodd"
       clip-rule="evenodd"
       id="path967" />
    <path
       d="m 182.297,98.383 h -8.619 l -0.625,-0.011 h 0.006 a 0.679,0.679 0 0 1 -0.679,-0.677 v -10e-4 0 l -0.002,-0.486 V 85.921 l -0.004,-0.088 v -0.01 a 0.035,0.035 0 0 0 -0.01,-0.024 h 0.002 a 0.037,0.037 0 0 0 -0.025,-0.01 h -0.986 c -0.01,0 -0.02,0.004 -0.025,0.01 h 0.002 a 0.025,0.025 0 0 0 -0.008,0.017 l 0.004,0.075 v 12.688 l 0.002,0.525 c 0,0.01 0.004,0.018 0.01,0.023 0.006,0.005 0.014,0.01 0.023,0.01 h 10.943 l 0.121,0.006 a 0.032,0.032 0 0 0 0.02,-0.01 0.03,0.03 0 0 0 0.012,-0.023 v -0.695 a 0.027,0.027 0 0 0 -0.012,-0.024 0.032,0.032 0 0 0 -0.02,-0.01 z m -0.012,-0.646 0.131,-0.003 h 0.006 a 0.676,0.676 0 0 1 0.679,0.679 v 0.695 a 0.677,0.677 0 0 1 -0.679,0.678 h -0.014 l -0.131,-0.006 h -10.916 a 0.675,0.675 0 0 1 -0.679,-0.678 V 85.931 l -0.008,-0.088 v -0.02 c 0,-0.187 0.078,-0.357 0.201,-0.48 a 0.677,0.677 0 0 1 0.479,-0.199 h 0.986 c 0.186,0 0.355,0.076 0.479,0.199 h 0.002 a 0.677,0.677 0 0 1 0.199,0.48 v -0.01 l 0.002,0.088 v 11.303 l 0.004,0.487 v 0.002 c 0,0.009 0.004,0.018 0.01,0.023 0.006,0.005 0.014,0.01 0.023,0.01 h 0.006 l 0.619,0.011 z"
       id="path969" />
    <path
       d="m 159.41,85.823 a 0.355,0.355 0 0 0 -0.355,-0.356 h -0.986 a 0.355,0.355 0 0 0 -0.355,0.356 l 0.006,0.088 v 13.192 c 0,0.197 0.16,0.356 0.357,0.356 h 10.93 l 0.131,0.006 c 0.197,0 0.357,-0.16 0.357,-0.356 v -0.695 a 0.356,0.356 0 0 0 -0.357,-0.356 l -0.131,0.003 H 160.4 l -0.625,-0.011 a 0.357,0.357 0 0 1 -0.357,-0.356 l -0.002,-0.488 V 85.911 Z"
       fill-rule="evenodd"
       clip-rule="evenodd"
       id="path971" />
    <path
       d="m 159.088,85.833 v -0.01 a 0.035,0.035 0 0 0 -0.033,-0.034 h -0.986 c -0.01,0 -0.02,0.004 -0.025,0.01 h 0.002 a 0.04,0.04 0 0 0 -0.01,0.017 l 0.006,0.075 v 12.688 l 0.002,0.525 c 0,0.01 0.004,0.018 0.01,0.023 0.006,0.005 0.014,0.01 0.023,0.01 h 10.943 l 0.121,0.006 a 0.033,0.033 0 0 0 0.029,-0.033 v -0.695 a 0.031,0.031 0 0 0 -0.01,-0.024 0.032,0.032 0 0 0 -0.021,-0.01 l -0.127,0.003 h -8.619 l -0.625,-0.011 h 0.006 a 0.675,0.675 0 0 1 -0.679,-0.677 v -0.001 0 l -0.002,-0.486 V 85.921 Z m 0.646,-0.01 v -0.01 l 0.002,0.088 v 11.303 l 0.004,0.487 v 0.002 c 0,0.009 0.002,0.018 0.008,0.023 0.006,0.005 0.016,0.01 0.025,0.01 h 0.004 l 0.621,0.011 H 169 l 0.131,-0.003 h 0.006 a 0.676,0.676 0 0 1 0.679,0.679 v 0.695 a 0.68,0.68 0 0 1 -0.68,0.679 h -0.014 l -0.131,-0.006 h -10.916 a 0.675,0.675 0 0 1 -0.679,-0.678 l -0.002,-0.525 V 85.931 l -0.006,-0.088 v -0.02 c 0,-0.187 0.076,-0.357 0.199,-0.48 h 0.002 a 0.677,0.677 0 0 1 0.479,-0.199 h 0.986 a 0.68,0.68 0 0 1 0.68,0.679 z"
       id="path973" />
    <path
       d="m 139.6,85.947 v 4.887 l 0.004,0.487 a 0.356,0.356 0 0 1 -0.355,0.357 h -9.006 l -0.131,0.008 a 0.356,0.356 0 0 0 -0.357,0.356 l 0.01,0.678 c 0,0.197 0.158,0.356 0.355,0.356 l 0.123,0.001 h 9.002 c 0.197,0 0.357,0.16 0.357,0.356 l -0.002,0.569 v 5.147 c 0,0.196 0.158,0.356 0.355,0.356 h 0.957 c 0.197,0 0.355,-0.16 0.355,-0.356 l 0.004,-0.081 V 85.874 a 0.357,0.357 0 0 0 -0.357,-0.357 h -0.957 a 0.357,0.357 0 0 0 -0.357,0.357 z"
       fill-rule="evenodd"
       clip-rule="evenodd"
       id="path975" />
    <path
       d="m 130.076,92.04 c 0,10e-4 0,10e-4 0,0 z m 0,10e-4 c 0,0.001 0,0.001 0,0 z m 9.201,-6.091 v -0.076 a 0.676,0.676 0 0 1 0.679,-0.679 h 0.957 a 0.676,0.676 0 0 1 0.679,0.679 v 13.207 l -0.002,0.08 V 99.15 a 0.677,0.677 0 0 1 -0.679,0.678 h -0.957 a 0.676,0.676 0 0 1 -0.679,-0.678 v -0.007 l 0.002,-0.08 v -5.63 a 0.035,0.035 0 0 0 -0.01,-0.024 h 0.002 a 0.037,0.037 0 0 0 -0.025,-0.01 h -9.006 l -0.119,-0.001 h -0.002 0.002 -0.002 a 0.679,0.679 0 0 1 -0.676,-0.676 v -0.002 0 l -0.01,-0.674 v -0.004 c 0,-0.187 0.076,-0.356 0.199,-0.479 v -0.001 a 0.677,0.677 0 0 1 0.48,-0.199 h -0.018 l 0.129,-0.007 h 8.365 l 0.66,-10e-4 a 0.033,0.033 0 0 0 0.033,-0.033 l -0.004,-0.484 V 85.95 Z"
       id="path977" />
    <path
       d="m 128.191,99.157 a 0.353,0.353 0 0 1 -0.352,0.356 h -0.941 a 0.355,0.355 0 0 1 -0.352,-0.356 l -0.018,-0.124 V 86.014 l 0.002,-0.133 c 0,-0.197 0.156,-0.356 0.352,-0.356 h 0.961 c 0.193,0 0.352,0.159 0.352,0.356 l 0.004,0.15 v 13.002 z"
       fill-rule="evenodd"
       clip-rule="evenodd"
       id="path979" />
    <path
       d="m 128.514,99.177 v -0.02 a 0.681,0.681 0 0 1 -0.195,0.478 0.67,0.67 0 0 1 -0.479,0.201 h -0.941 a 0.672,0.672 0 0 1 -0.674,-0.659 l -0.016,-0.098 -0.004,-0.046 V 86.011 l 0.004,-0.13 v -0.004 0.004 -0.004 c 0,-0.184 0.074,-0.352 0.195,-0.474 a 0.668,0.668 0 0 1 0.479,-0.202 h 0.961 a 0.681,0.681 0 0 1 0.674,0.68 v -0.01 l 0.004,0.15 v 13.033 z m -0.645,-0.02 v -0.021 l 0.008,-0.123 V 86.041 l -0.006,-0.15 v -0.01 c 0,-0.011 -0.004,-0.021 -0.01,-0.026 a 0.025,0.025 0 0 0 -0.018,-0.007 h -0.961 a 0.03,0.03 0 0 0 -0.02,0.007 0.038,0.038 0 0 0 -0.01,0.026 v 0.004 l -0.002,0.133 v 12.997 l 0.014,0.097 0.004,0.046 c 0,0.011 0.004,0.021 0.01,0.026 a 0.03,0.03 0 0 0 0.02,0.007 h 0.941 a 0.03,0.03 0 0 0 0.02,-0.007 0.039,0.039 0 0 0 0.01,-0.027 z"
       id="path981" />
    <path
       d="m 54.88,85.823 a 0.356,0.356 0 0 0 -0.357,-0.356 h -0.976 a 0.356,0.356 0 0 0 -0.356,0.356 l 0.005,0.1 v 12.655 l 0.001,0.525 c 0,0.197 0.16,0.356 0.357,0.356 h 10.929 l 0.131,0.006 c 0.197,0 0.356,-0.16 0.356,-0.356 v -0.695 a 0.356,0.356 0 0 0 -0.356,-0.356 l -0.131,0.003 H 55.875 L 55.251,98.05 a 0.356,0.356 0 0 1 -0.356,-0.356 l -0.002,-0.488 v -11.3 z"
       fill-rule="evenodd"
       clip-rule="evenodd"
       id="path983" />
    <path
       d="m 54.561,85.871 -0.004,-0.048 a 0.035,0.035 0 0 0 -0.01,-0.024 v -0.001 a 0.035,0.035 0 0 0 -0.024,-0.009 h -0.976 c -0.01,0 -0.019,0.003 -0.024,0.009 v 0.001 a 0.038,0.038 0 0 0 -0.009,0.019 l 0.005,0.087 v 12.673 l 0.002,0.525 c 0,0.019 0.015,0.033 0.034,0.033 h 10.942 l 0.122,0.006 a 0.033,0.033 0 0 0 0.029,-0.033 v -0.695 a 0.031,0.031 0 0 0 -0.01,-0.024 0.038,0.038 0 0 0 -0.021,-0.01 l -0.128,0.003 h -8.62 l -0.624,-0.011 h 0.005 a 0.679,0.679 0 0 1 -0.679,-0.677 v -10e-4 0 l -0.002,-0.486 v -11.28 z m 0.642,-0.073 0.009,0.06 0.004,0.048 v 11.299 l 0.002,0.487 v 0.002 a 0.03,0.03 0 0 0 0.01,0.023 c 0.006,0.006 0.015,0.01 0.024,0.01 h 0.005 l 0.619,0.011 h 8.602 l 0.131,-0.003 h 0.006 a 0.677,0.677 0 0 1 0.679,0.679 v 0.695 a 0.679,0.679 0 0 1 -0.679,0.679 H 64.601 L 64.47,99.782 H 53.555 A 0.679,0.679 0 0 1 52.876,99.103 L 52.874,98.578 V 85.94 l -0.006,-0.1 v -0.018 c 0,-0.187 0.076,-0.357 0.199,-0.48 v 0.001 a 0.676,0.676 0 0 1 0.48,-0.2 h 0.976 c 0.187,0 0.357,0.077 0.48,0.2 v -0.001 a 0.683,0.683 0 0 1 0.2,0.456 z"
       id="path985" />
    <path
       d="m 146.812,91.591 a 0.357,0.357 0 0 0 -0.357,0.356 v 0.588 c 0,0.197 0.16,0.357 0.357,0.357 l 0.098,0.01 h 7.879 l 0.146,0.005 c 0.197,0 0.357,-0.16 0.357,-0.357 v -0.588 a 0.357,0.357 0 0 0 -0.357,-0.357 l -0.158,-0.01 h -7.865 z"
       fill-rule="evenodd"
       clip-rule="evenodd"
       id="path987" />
    <path
       d="m 146.805,91.914 a 0.037,0.037 0 0 0 -0.018,0.008 v 0.001 a 0.035,0.035 0 0 0 -0.01,0.024 v 0.588 c 0,0.019 0.016,0.034 0.035,0.034 l 0.031,0.003 0.072,0.007 h 7.885 l 0.141,0.005 a 0.034,0.034 0 0 0 0.029,-0.034 v -0.588 a 0.035,0.035 0 0 0 -0.035,-0.034 h -0.02 l -0.158,-0.01 h -7.863 z m 0.007,-0.646 h 0.016 l 0.1,0.006 h 7.869 l 0.16,0.01 h -0.021 a 0.68,0.68 0 0 1 0.68,0.679 v 0.588 a 0.68,0.68 0 0 1 -0.68,0.68 h -0.01 l -0.148,-0.006 h -7.867 l -0.031,-0.002 -0.074,-0.007 a 0.68,0.68 0 0 1 -0.672,-0.68 v -0.588 c 0,-0.188 0.076,-0.357 0.199,-0.48 v 10e-4 a 0.67,0.67 0 0 1 0.479,-0.201 z"
       id="path989" />
    <path
       d="m 144.654,99.433 h 10.707 l 0.1,-0.001 a 0.356,0.356 0 0 0 0.357,-0.356 V 98.39 a 0.356,0.356 0 0 0 -0.357,-0.356 h -9.198 z"
       fill-rule="evenodd"
       clip-rule="evenodd"
       id="path991" />
    <path
       d="m 144.654,99.109 h 10.707 l 0.096,-10e-4 0.008,0.647 -0.1,0.001 h -10.711 z"
       id="path993" />
    <path
       d="m 155.461,99.108 c 0.02,0 0.035,-0.015 0.035,-0.033 h 0.645 a 0.68,0.68 0 0 1 -0.68,0.68 z m 0.035,-0.033 V 98.39 h 0.645 v 0.685 z m 0,-0.685 a 0.029,0.029 0 0 0 -0.012,-0.024 0.033,0.033 0 0 0 -0.023,-0.01 v -0.645 a 0.675,0.675 0 0 1 0.679,0.678 h -0.644 z m -0.035,-0.035 h -9.197 v -0.644 h 9.197 z"
       id="path995" />
    <path
       d="m 146.264,98.033 -1.033,0.003 a 0.356,0.356 0 0 1 -0.355,-0.356 l -0.002,-0.491 v -9.591 l 0.002,-0.397 c 0,-0.197 0.16,-0.356 0.355,-0.356 l 0.543,-0.006 h 9.588 l 0.1,0.003 a 0.356,0.356 0 0 0 0.357,-0.356 V 85.8 a 0.356,0.356 0 0 0 -0.357,-0.356 l -0.1,-0.004 h -11.486 l -0.414,0.006 a 0.356,0.356 0 0 0 -0.355,0.357 l -0.006,0.423 v 12.201 l -0.004,0.644 c 0,0.197 0.16,0.356 0.355,0.356 l 1.203,0.007 z"
       fill-rule="evenodd"
       clip-rule="evenodd"
       id="path997" />
    <path
       d="m 146.264,98.355 -1.034,0.004 v -0.645 l 1.034,-0.003 z m -1.034,0.004 a 0.679,0.679 0 0 1 -0.678,-0.68 h 0.645 c 0,0.019 0.016,0.034 0.033,0.034 z"
       id="path999" />
    <path
       d="m 144.553,97.68 -0.002,-0.492 v -9.59 l 0.002,-0.397 h 0.644 l -0.002,0.397 v 9.59 l 0.002,0.492 z"
       id="path1001" />
    <path
       d="m 144.553,87.201 a 0.674,0.674 0 0 1 0.677,-0.679 v 0.646 c -0.008,0 -0.018,0.004 -0.023,0.01 -0.005,0.006 -0.01,0.015 -0.01,0.024 h -0.644 z"
       id="path1003" />
    <path
       d="m 145.229,86.521 0.542,-0.006 h 9.598 l 0.102,0.003 -0.018,0.646 -0.101,-0.003 h -9.577 l -0.541,0.006 z"
       id="path1005" />
    <path
       d="m 155.461,86.518 c 0.02,0 0.035,-0.015 0.035,-0.034 h 0.645 a 0.68,0.68 0 0 1 -0.68,0.68 z m 0.035,-0.034 v -0.685 h 0.645 v 0.685 z"
       id="path1007" />
    <path
       d="m 155.496,85.799 a 0.027,0.027 0 0 0 -0.012,-0.023 0.033,0.033 0 0 0 -0.023,-0.01 V 85.12 a 0.676,0.676 0 0 1 0.679,0.679 z"
       id="path1009" />
    <path
       d="m 155.449,85.765 -0.099,-0.003 h -11.471 l -0.414,0.006 -0.008,-0.646 0.414,-0.006 h 11.502 l 0.1,0.004 z"
       id="path1011" />
    <path
       d="m 143.461,85.768 a 0.032,0.032 0 0 0 -0.023,0.009 v 0.001 a 0.033,0.033 0 0 0 -0.01,0.024 h -0.646 c 0,-0.188 0.076,-0.357 0.199,-0.48 v 10e-4 a 0.681,0.681 0 0 1 0.48,-0.2 z"
       id="path1013" />
    <path
       d="m 143.428,85.805 -0.006,0.42 v 12.202 l -0.004,0.643 -0.645,-0.002 0.004,-0.642 V 86.221 l 0.004,-0.423 z"
       id="path1015" />
    <path
       d="m 143.418,99.069 c 0,0.011 0.004,0.019 0.008,0.023 h 0.002 a 0.033,0.033 0 0 0 0.023,0.011 v 0.646 a 0.676,0.676 0 0 1 -0.48,-0.199 h 0.002 a 0.68,0.68 0 0 1 -0.199,-0.48 h 0.644 z m 0.035,0.035 1.203,0.005 -0.004,0.647 -1.201,-0.007 z"
       id="path1017" />
    <path
       d="m 184.104,98.728 a 2.912,2.912 0 0 1 2.916,-2.901 2.909,2.909 0 1 1 -2.916,2.901 z m 5.357,0 c 0,-1.412 -1.029,-2.518 -2.441,-2.518 -1.42,0 -2.457,1.105 -2.457,2.518 0,1.427 1.037,2.532 2.457,2.532 1.412,0 2.441,-1.106 2.441,-2.532 z m -0.99,1.626 h -0.477 l -0.928,-1.497 h -0.73 v 1.497 h -0.398 v -3.247 h 1.42 c 0.859,0 1.152,0.322 1.152,0.859 0,0.638 -0.445,0.875 -1.021,0.891 z m -1.528,-1.811 c 0.461,0 1.135,0.077 1.135,-0.583 0,-0.507 -0.414,-0.568 -0.812,-0.568 h -0.93 v 1.151 z m -184.109,7.88 h 2.063 c 1.336,0 1.591,0.864 1.591,1.447 0,0.576 -0.255,1.44 -1.591,1.435 H 3.653 v 1.794 H 2.834 Z m 0.819,2.213 h 1.198 c 0.367,0 0.819,-0.183 0.819,-0.772 0,-0.615 -0.374,-0.772 -0.806,-0.772 H 3.653 Z m 6.263,-2.213 h 2.232 c 1.021,0 1.546,0.472 1.546,1.264 0,0.897 -0.622,1.126 -0.772,1.179 v 0.014 c 0.281,0.039 0.693,0.248 0.693,0.988 0,0.544 0.079,1.041 0.256,1.231 h -0.877 c -0.125,-0.203 -0.125,-0.459 -0.125,-0.688 0,-0.858 -0.177,-1.238 -0.93,-1.238 h -1.205 v 1.926 H 9.916 Z m 0.818,2.128 h 1.342 c 0.518,0 0.799,-0.255 0.799,-0.746 0,-0.596 -0.387,-0.714 -0.812,-0.714 h -1.329 z m 10.733,0.21 c 0,1.336 -0.838,2.449 -2.239,2.449 -1.401,0 -2.24,-1.113 -2.24,-2.449 0,-1.336 0.838,-2.449 2.24,-2.449 1.402,0 2.239,1.113 2.239,2.449 z m -3.66,0 c 0,0.896 0.419,1.781 1.421,1.781 1.002,0 1.421,-0.885 1.421,-1.781 0,-0.897 -0.419,-1.781 -1.421,-1.781 -1.002,0 -1.421,0.883 -1.421,1.781 z m 7.118,-2.338 h 3.229 v 0.707 h -2.41 v 1.224 h 2.115 v 0.668 h -2.115 v 2.077 h -0.819 z m 6.595,0 h 3.366 v 0.707 h -2.548 v 1.224 h 2.358 v 0.668 h -2.358 v 1.369 h 2.594 v 0.708 H 31.52 Z m 7.375,3.117 c 0,0.72 0.531,1.002 1.185,1.002 0.721,0 0.989,-0.354 0.989,-0.708 0,-0.359 -0.196,-0.504 -0.387,-0.576 -0.327,-0.124 -0.753,-0.209 -1.395,-0.386 -0.799,-0.216 -1.035,-0.701 -1.035,-1.186 0,-0.937 0.864,-1.375 1.709,-1.375 0.976,0 1.794,0.517 1.794,1.493 h -0.818 c -0.04,-0.603 -0.445,-0.825 -1.009,-0.825 -0.38,0 -0.857,0.138 -0.857,0.608 0,0.328 0.222,0.512 0.556,0.603 0.072,0.021 1.107,0.288 1.349,0.36 0.616,0.184 0.91,0.707 0.91,1.191 0,1.049 -0.93,1.468 -1.86,1.468 -1.067,0 -1.932,-0.511 -1.951,-1.67 h 0.82 z m 6.956,0 c 0,0.72 0.53,1.002 1.185,1.002 0.721,0 0.989,-0.354 0.989,-0.708 0,-0.359 -0.196,-0.504 -0.387,-0.576 -0.327,-0.124 -0.753,-0.209 -1.395,-0.386 -0.799,-0.216 -1.035,-0.701 -1.035,-1.186 0,-0.937 0.864,-1.375 1.709,-1.375 0.976,0 1.794,0.517 1.794,1.493 h -0.818 c -0.04,-0.603 -0.445,-0.825 -1.009,-0.825 -0.38,0 -0.857,0.138 -0.857,0.608 0,0.328 0.222,0.512 0.556,0.603 0.072,0.021 1.106,0.288 1.349,0.36 0.616,0.184 0.91,0.707 0.91,1.191 0,1.049 -0.93,1.468 -1.859,1.468 -1.068,0 -1.932,-0.511 -1.952,-1.67 h 0.82 z m 6.419,-3.117 h 0.818 v 4.676 H 52.27 Z m 8.763,2.338 c 0,1.336 -0.838,2.449 -2.24,2.449 -1.401,0 -2.239,-1.113 -2.239,-2.449 0,-1.336 0.838,-2.449 2.239,-2.449 1.401,0 2.24,1.113 2.24,2.449 z m -3.661,0 c 0,0.896 0.419,1.781 1.421,1.781 1.002,0 1.421,-0.885 1.421,-1.781 0,-0.897 -0.419,-1.781 -1.421,-1.781 -1.002,-0.001 -1.421,0.883 -1.421,1.781 z m 7.086,-2.338 h 0.864 l 2.135,3.444 h 0.013 v -3.444 h 0.779 v 4.676 h -0.865 l -2.128,-3.439 h -0.019 v 3.439 h -0.779 z m 8.723,0 h 0.871 l 1.801,4.676 h -0.877 l -0.439,-1.238 H 72.67 l -0.438,1.238 h -0.845 z m -0.288,2.815 h 1.428 l -0.701,-2.01 h -0.019 z m 6.118,-2.815 h 0.819 v 3.968 h 2.377 v 0.708 h -3.196 z m 11.094,3.117 c 0,0.72 0.53,1.002 1.186,1.002 0.72,0 0.988,-0.354 0.988,-0.708 0,-0.359 -0.196,-0.504 -0.386,-0.576 -0.327,-0.124 -0.753,-0.209 -1.395,-0.386 -0.799,-0.216 -1.034,-0.701 -1.034,-1.186 0,-0.937 0.864,-1.375 1.709,-1.375 0.976,0 1.794,0.517 1.794,1.493 h -0.819 c -0.039,-0.603 -0.445,-0.825 -1.009,-0.825 -0.379,0 -0.857,0.138 -0.857,0.608 0,0.328 0.223,0.512 0.557,0.603 0.072,0.021 1.106,0.288 1.349,0.36 0.616,0.184 0.91,0.707 0.91,1.191 0,1.049 -0.93,1.468 -1.86,1.468 -1.067,0 -1.932,-0.511 -1.951,-1.67 h 0.818 z m 7.67,-3.117 h 0.871 l 1.801,4.676 h -0.879 l -0.438,-1.238 h -1.867 l -0.439,1.238 H 95.98 Z m -0.289,2.815 h 1.428 l -0.701,-2.01 h -0.02 z m 6.118,-2.815 h 0.82 v 3.968 h 2.377 v 0.708 h -3.197 z m 10.703,2.338 c 0,1.336 -0.838,2.449 -2.24,2.449 -1.4,0 -2.24,-1.113 -2.24,-2.449 0,-1.336 0.84,-2.449 2.24,-2.449 1.402,0 2.24,1.113 2.24,2.449 z m -3.661,0 c 0,0.896 0.418,1.781 1.42,1.781 1.002,0 1.422,-0.885 1.422,-1.781 0,-0.897 -0.42,-1.781 -1.422,-1.781 -1.002,0 -1.42,0.883 -1.42,1.781 z m 7.086,-2.338 h 0.864 l 2.134,3.444 h 0.014 v -3.444 h 0.779 v 4.676 h -0.865 l -2.127,-3.439 h -0.021 v 3.439 h -0.778 z m 11.557,0 h 2.064 c 1.334,0 1.59,0.864 1.59,1.447 0,0.576 -0.256,1.44 -1.59,1.435 h -1.244 v 1.794 h -0.82 z m 0.82,2.213 h 1.197 c 0.367,0 0.818,-0.183 0.818,-0.772 0,-0.615 -0.373,-0.772 -0.805,-0.772 h -1.211 v 1.544 z m 6.262,-2.213 h 2.232 c 1.021,0 1.545,0.472 1.545,1.264 0,0.897 -0.621,1.126 -0.771,1.179 v 0.014 c 0.281,0.039 0.693,0.248 0.693,0.988 0,0.544 0.078,1.041 0.256,1.231 h -0.877 c -0.125,-0.203 -0.125,-0.459 -0.125,-0.688 0,-0.858 -0.178,-1.238 -0.93,-1.238 h -1.205 v 1.926 h -0.818 z m 0.818,2.128 h 1.342 c 0.518,0 0.799,-0.255 0.799,-0.746 0,-0.596 -0.387,-0.714 -0.812,-0.714 h -1.328 v 1.46 z m 10.733,0.21 c 0,1.336 -0.838,2.449 -2.238,2.449 -1.402,0 -2.24,-1.113 -2.24,-2.449 0,-1.336 0.838,-2.449 2.24,-2.449 1.4,0 2.238,1.113 2.238,2.449 z m -3.66,0 c 0,0.896 0.42,1.781 1.422,1.781 1.002,0 1.42,-0.885 1.42,-1.781 0,-0.897 -0.418,-1.781 -1.42,-1.781 -1.002,0 -1.422,0.883 -1.422,1.781 z m 7.119,-2.338 h 1.938 c 1.441,0 2.062,1.048 2.062,2.338 0,1.29 -0.621,2.338 -2.062,2.338 h -1.938 z m 0.818,4.008 h 0.805 c 1.283,0 1.559,-0.733 1.559,-1.67 0,-0.937 -0.275,-1.67 -1.559,-1.67 h -0.805 z m 6.569,-4.008 h 0.82 v 2.724 c 0,0.629 0.039,1.355 1.1,1.355 1.061,0 1.1,-0.727 1.1,-1.355 v -2.724 h 0.818 v 2.992 c 0,1.198 -0.766,1.795 -1.918,1.795 -1.152,0 -1.92,-0.597 -1.92,-1.795 z m 10.65,1.486 c -0.139,-0.537 -0.484,-0.93 -1.166,-0.93 -1.002,0 -1.422,0.884 -1.422,1.781 0,0.896 0.42,1.781 1.422,1.781 0.727,0 1.127,-0.544 1.191,-1.225 h 0.799 c -0.064,1.119 -0.857,1.893 -1.99,1.893 -1.402,0 -2.24,-1.113 -2.24,-2.449 0,-1.336 0.838,-2.449 2.24,-2.449 1.055,0.007 1.887,0.589 1.984,1.598 z m 3.838,-1.486 h 3.785 v 0.707 h -1.486 v 3.969 h -0.819 v -3.969 h -1.48 z m 7.578,3.117 c 0,0.72 0.529,1.002 1.184,1.002 0.721,0 0.99,-0.354 0.99,-0.708 0,-0.359 -0.197,-0.504 -0.387,-0.576 -0.328,-0.124 -0.754,-0.209 -1.395,-0.386 -0.799,-0.216 -1.035,-0.701 -1.035,-1.186 0,-0.937 0.865,-1.375 1.709,-1.375 0.977,0 1.795,0.517 1.795,1.493 h -0.818 c -0.039,-0.603 -0.445,-0.825 -1.01,-0.825 -0.379,0 -0.857,0.138 -0.857,0.608 0,0.328 0.223,0.512 0.557,0.603 0.072,0.021 1.107,0.288 1.35,0.36 0.615,0.184 0.91,0.707 0.91,1.191 0,1.049 -0.93,1.468 -1.859,1.468 -1.068,0 -1.934,-0.511 -1.953,-1.67 h 0.819 z"
       fill-rule="evenodd"
       clip-rule="evenodd"
       id="path1019" />
  </g>
</svg>
